<svg width="690" height="538" viewBox="0 0 690 538" fill="none" xmlns="http://www.w3.org/2000/svg">
<path d="M354.386 402.571C381.306 383.051 430.586 343.131 377.206 319.021C335.016 299.961 263.176 297.411 269.576 233.341C272.536 203.731 298.956 183.561 321.086 167.391C349.486 146.641 381.706 131.101 407.996 107.591C412.106 103.911 412.916 97.7713 409.946 93.1313L353.626 5.19128C349.206 -1.70872 339.126 -1.73871 334.676 5.15129L1.82579 520.001C-3.02421 527.501 2.35579 537.391 11.2858 537.391H138.326C140.526 537.391 142.666 536.741 144.506 535.531" fill="url(#paint0_linear_3003_19)"/>
<path d="M687.776 519.981L438.296 135.241C434.706 129.701 427.136 128.421 421.926 132.471C412.976 139.431 404.116 146.521 394.756 152.951C362.126 175.371 243.016 232.521 326.636 271.691C361.776 288.161 425.656 292.141 428.686 342.171C431.646 391.001 368.096 424.981 333.826 449.321L227.706 516.601C218.176 522.641 222.456 537.391 233.736 537.391H678.306C687.246 537.391 692.626 527.491 687.766 519.991L687.776 519.981Z" fill="url(#paint1_linear_3003_19)"/>
<defs>
<linearGradient id="paint0_linear_3003_19" x1="411.726" y1="533.164" x2="40.0736" y2="473.881" gradientUnits="userSpaceOnUse">
<stop stop-color="#6B7280"/>
<stop offset="0.7" stop-color="#E4E4E4"/>
</linearGradient>
<linearGradient id="paint1_linear_3003_19" x1="689.597" y1="534.187" x2="280.516" y2="436.502" gradientUnits="userSpaceOnUse">
<stop stop-color="#6B7280"/>
<stop offset="0.7" stop-color="#E4E4E4"/>
</linearGradient>
</defs>
</svg>
